M48
; DRILL file {KiCad 6.0.4-6f826c9f35~116~ubuntu20.04.1} date Tue 05 Apr 2022 06:26:19 PM CDT
; FORMAT={-:-/ absolute / inch / decimal}
; #@! TF.CreationDate,2022-04-05T18:26:19-05:00
; #@! TF.GenerationSoftware,Kicad,Pcbnew,6.0.4-6f826c9f35~116~ubuntu20.04.1
; #@! TF.FileFunction,Plated,1,2,PTH
FMAT,2
INCH
; #@! TA.AperFunction,Plated,PTH,ComponentDrill
T1C0.0315
; #@! TA.AperFunction,Plated,PTH,ComponentDrill
T2C0.0354
; #@! TA.AperFunction,Plated,PTH,ComponentDrill
T3C0.0394
; #@! TA.AperFunction,Plated,PTH,ComponentDrill
T4C0.0433
; #@! TA.AperFunction,Plated,PTH,ComponentDrill
T5C0.0472
; #@! TA.AperFunction,Plated,PTH,ComponentDrill
T6C0.0510
; #@! TA.AperFunction,Plated,PTH,ComponentDrill
T7C0.0600
; #@! TA.AperFunction,Plated,PTH,ComponentDrill
T8C0.1000
%
G90
G05
T1
X5.94Y-1.43
X5.94Y-1.53
X5.94Y-1.63
X5.94Y-1.73
X5.94Y-1.83
X5.94Y-1.93
X5.94Y-2.03
X5.94Y-2.13
X5.94Y-2.23
X5.94Y-2.33
X5.94Y-2.43
X5.94Y-2.53
X5.94Y-2.63
X5.94Y-2.73
X6.24Y-1.43
X6.24Y-1.53
X6.24Y-1.63
X6.24Y-1.73
X6.24Y-1.83
X6.24Y-1.93
X6.24Y-2.03
X6.24Y-2.13
X6.24Y-2.23
X6.24Y-2.33
X6.24Y-2.43
X6.24Y-2.53
X6.24Y-2.63
X6.24Y-2.73
X7.79Y-4.11
X7.79Y-4.3069
X7.99Y-4.1116
X7.99Y-4.3084
T2
X3.55Y-2.55
X3.65Y-2.55
T3
X3.85Y-1.35
X3.95Y-1.35
X4.05Y-1.35
X4.15Y-1.35
X4.25Y-1.35
X5.0316Y-2.6575
X5.0316Y-2.7575
X5.0316Y-2.8575
X5.0316Y-2.9575
X5.0316Y-3.0575
X5.0316Y-3.1575
X5.0316Y-3.2575
X5.0316Y-3.3575
X5.0316Y-3.4575
X5.0316Y-3.5575
X5.0316Y-3.6575
X5.0316Y-3.7575
X5.0316Y-3.8575
X5.0316Y-3.9575
X5.0316Y-4.0575
X5.1316Y-2.6575
X5.1316Y-2.7575
X5.1316Y-2.8575
X5.1316Y-2.9575
X5.1316Y-3.0575
X5.1316Y-3.1575
X5.1316Y-3.2575
X5.1316Y-3.3575
X5.1316Y-3.4575
X5.1316Y-3.5575
X5.1316Y-3.6575
X5.1316Y-3.7575
X5.1316Y-3.8575
X5.1316Y-3.9575
X5.1316Y-4.0575
X5.65Y-4.2375
X5.75Y-4.2375
X5.85Y-4.2375
X5.95Y-4.2375
X6.05Y-4.2375
X6.15Y-4.2375
X6.25Y-4.2375
X6.35Y-4.2375
X6.45Y-4.2375
X6.55Y-4.2375
T4
X5.322Y-1.4114
X5.322Y-1.5886
X5.455Y-3.13
X5.455Y-3.73
X5.555Y-3.13
X5.555Y-3.73
X5.578Y-1.4114
X5.578Y-1.5886
X5.655Y-3.13
X5.655Y-3.73
X5.755Y-3.13
X5.755Y-3.73
X5.855Y-3.13
X5.855Y-3.73
X5.955Y-3.13
X5.955Y-3.73
X6.055Y-3.13
X6.055Y-3.73
X6.155Y-3.13
X6.155Y-3.73
X6.255Y-3.13
X6.255Y-3.73
X6.355Y-3.13
X6.355Y-3.73
X6.455Y-3.13
X6.455Y-3.73
X6.555Y-3.13
X6.555Y-3.73
X6.622Y-1.4114
X6.622Y-1.5886
X6.655Y-3.13
X6.655Y-3.73
X6.755Y-3.13
X6.755Y-3.73
X6.878Y-1.4114
X6.878Y-1.5886
X7.172Y-2.8614
X7.172Y-3.0386
X7.172Y-3.3114
X7.172Y-3.4886
X7.172Y-3.7614
X7.172Y-3.9386
X7.428Y-2.8614
X7.428Y-3.0386
X7.428Y-3.3114
X7.428Y-3.4886
X7.428Y-3.7614
X7.428Y-3.9386
T5
X3.222Y-1.3584
X3.322Y-1.3584
X3.422Y-1.3584
X3.65Y-1.71
X3.65Y-1.91
X4.15Y-1.71
X4.15Y-1.91
X4.81Y-2.66
X4.81Y-3.16
X7.3047Y-2.3213
X7.3047Y-2.4
X7.3047Y-2.4787
X7.36Y-1.4
X7.36Y-1.59
X7.36Y-1.8
X7.36Y-1.99
X7.8Y-2.82
X7.8Y-3.32
X7.8Y-3.48
X7.8Y-3.98
X7.86Y-1.4
X7.86Y-1.59
X7.86Y-1.8
X7.86Y-1.99
X7.8756Y-2.3016
X7.8756Y-2.4984
X7.99Y-3.49
X7.99Y-3.99
X8.0Y-2.82
X8.0Y-3.32
T6
X3.91Y-4.42
X4.01Y-4.42
X4.5893Y-4.418
X4.6893Y-4.418
X4.7893Y-4.418
X4.8893Y-4.418
X7.1593Y-4.418
X7.2593Y-4.418
X7.3593Y-4.418
X7.4593Y-4.418
T7
X3.4869Y-3.6721
X3.7071Y-3.3571
X4.0221Y-3.3631
T8
X3.4269Y-4.05
X3.5994Y-4.05
X3.7769Y-4.05
T0
M30
