%TF.GenerationSoftware,KiCad,Pcbnew,(6.0.1)*%
%TF.CreationDate,2022-04-05T20:10:59-05:00*%
%TF.ProjectId,Electroturn,456c6563-7472-46f7-9475-726e2e6b6963,rev?*%
%TF.SameCoordinates,Original*%
%TF.FileFunction,Legend,Top*%
%TF.FilePolarity,Positive*%
%FSLAX46Y46*%
G04 Gerber Fmt 4.6, Leading zero omitted, Abs format (unit mm)*
G04 Created by KiCad (PCBNEW (6.0.1)) date 2022-04-05 20:10:59*
%MOMM*%
%LPD*%
G01*
G04 APERTURE LIST*
%ADD10C,0.381000*%
%ADD11C,0.150000*%
%ADD12C,0.120000*%
%ADD13C,0.050000*%
G04 APERTURE END LIST*
D10*
X178054000Y-86360000D02*
X173990000Y-86360000D01*
X178054000Y-97536000D02*
X173990000Y-97536000D01*
X178054000Y-74930000D02*
X173990000Y-74930000D01*
D11*
X178990666Y-74858571D02*
X178657333Y-74858571D01*
X178657333Y-75382380D02*
X178657333Y-74382380D01*
X179133523Y-74382380D01*
X180038285Y-75382380D02*
X179466857Y-75382380D01*
X179752571Y-75382380D02*
X179752571Y-74382380D01*
X179657333Y-74525238D01*
X179562095Y-74620476D01*
X179466857Y-74668095D01*
X178990666Y-97464571D02*
X178657333Y-97464571D01*
X178657333Y-97988380D02*
X178657333Y-96988380D01*
X179133523Y-96988380D01*
X179419238Y-96988380D02*
X180038285Y-96988380D01*
X179704952Y-97369333D01*
X179847809Y-97369333D01*
X179943047Y-97416952D01*
X179990666Y-97464571D01*
X180038285Y-97559809D01*
X180038285Y-97797904D01*
X179990666Y-97893142D01*
X179943047Y-97940761D01*
X179847809Y-97988380D01*
X179562095Y-97988380D01*
X179466857Y-97940761D01*
X179419238Y-97893142D01*
X178990666Y-86288571D02*
X178657333Y-86288571D01*
X178657333Y-86812380D02*
X178657333Y-85812380D01*
X179133523Y-85812380D01*
X179466857Y-85907619D02*
X179514476Y-85860000D01*
X179609714Y-85812380D01*
X179847809Y-85812380D01*
X179943047Y-85860000D01*
X179990666Y-85907619D01*
X180038285Y-86002857D01*
X180038285Y-86098095D01*
X179990666Y-86240952D01*
X179419238Y-86812380D01*
X180038285Y-86812380D01*
%TO.C,SW7*%
X184086666Y-93944761D02*
X184229523Y-93992380D01*
X184467619Y-93992380D01*
X184562857Y-93944761D01*
X184610476Y-93897142D01*
X184658095Y-93801904D01*
X184658095Y-93706666D01*
X184610476Y-93611428D01*
X184562857Y-93563809D01*
X184467619Y-93516190D01*
X184277142Y-93468571D01*
X184181904Y-93420952D01*
X184134285Y-93373333D01*
X184086666Y-93278095D01*
X184086666Y-93182857D01*
X184134285Y-93087619D01*
X184181904Y-93040000D01*
X184277142Y-92992380D01*
X184515238Y-92992380D01*
X184658095Y-93040000D01*
X184991428Y-92992380D02*
X185229523Y-93992380D01*
X185420000Y-93278095D01*
X185610476Y-93992380D01*
X185848571Y-92992380D01*
X186134285Y-92992380D02*
X186800952Y-92992380D01*
X186372380Y-93992380D01*
%TO.C,SW8*%
X191706666Y-68984761D02*
X191849523Y-69032380D01*
X192087619Y-69032380D01*
X192182857Y-68984761D01*
X192230476Y-68937142D01*
X192278095Y-68841904D01*
X192278095Y-68746666D01*
X192230476Y-68651428D01*
X192182857Y-68603809D01*
X192087619Y-68556190D01*
X191897142Y-68508571D01*
X191801904Y-68460952D01*
X191754285Y-68413333D01*
X191706666Y-68318095D01*
X191706666Y-68222857D01*
X191754285Y-68127619D01*
X191801904Y-68080000D01*
X191897142Y-68032380D01*
X192135238Y-68032380D01*
X192278095Y-68080000D01*
X192611428Y-68032380D02*
X192849523Y-69032380D01*
X193040000Y-68318095D01*
X193230476Y-69032380D01*
X193468571Y-68032380D01*
X193992380Y-68460952D02*
X193897142Y-68413333D01*
X193849523Y-68365714D01*
X193801904Y-68270476D01*
X193801904Y-68222857D01*
X193849523Y-68127619D01*
X193897142Y-68080000D01*
X193992380Y-68032380D01*
X194182857Y-68032380D01*
X194278095Y-68080000D01*
X194325714Y-68127619D01*
X194373333Y-68222857D01*
X194373333Y-68270476D01*
X194325714Y-68365714D01*
X194278095Y-68413333D01*
X194182857Y-68460952D01*
X193992380Y-68460952D01*
X193897142Y-68508571D01*
X193849523Y-68556190D01*
X193801904Y-68651428D01*
X193801904Y-68841904D01*
X193849523Y-68937142D01*
X193897142Y-68984761D01*
X193992380Y-69032380D01*
X194182857Y-69032380D01*
X194278095Y-68984761D01*
X194325714Y-68937142D01*
X194373333Y-68841904D01*
X194373333Y-68651428D01*
X194325714Y-68556190D01*
X194278095Y-68508571D01*
X194182857Y-68460952D01*
%TO.C,DS2*%
X141632380Y-108846785D02*
X140632380Y-108846785D01*
X140632380Y-108608690D01*
X140680000Y-108465833D01*
X140775238Y-108370595D01*
X140870476Y-108322976D01*
X141060952Y-108275357D01*
X141203809Y-108275357D01*
X141394285Y-108322976D01*
X141489523Y-108370595D01*
X141584761Y-108465833D01*
X141632380Y-108608690D01*
X141632380Y-108846785D01*
X141584761Y-107894404D02*
X141632380Y-107751547D01*
X141632380Y-107513452D01*
X141584761Y-107418214D01*
X141537142Y-107370595D01*
X141441904Y-107322976D01*
X141346666Y-107322976D01*
X141251428Y-107370595D01*
X141203809Y-107418214D01*
X141156190Y-107513452D01*
X141108571Y-107703928D01*
X141060952Y-107799166D01*
X141013333Y-107846785D01*
X140918095Y-107894404D01*
X140822857Y-107894404D01*
X140727619Y-107846785D01*
X140680000Y-107799166D01*
X140632380Y-107703928D01*
X140632380Y-107465833D01*
X140680000Y-107322976D01*
X140727619Y-106942023D02*
X140680000Y-106894404D01*
X140632380Y-106799166D01*
X140632380Y-106561071D01*
X140680000Y-106465833D01*
X140727619Y-106418214D01*
X140822857Y-106370595D01*
X140918095Y-106370595D01*
X141060952Y-106418214D01*
X141632380Y-106989642D01*
X141632380Y-106370595D01*
X143438571Y-104687261D02*
X143486190Y-104544404D01*
X143533809Y-104496785D01*
X143629047Y-104449166D01*
X143771904Y-104449166D01*
X143867142Y-104496785D01*
X143914761Y-104544404D01*
X143962380Y-104639642D01*
X143962380Y-105020595D01*
X142962380Y-105020595D01*
X142962380Y-104687261D01*
X143010000Y-104592023D01*
X143057619Y-104544404D01*
X143152857Y-104496785D01*
X143248095Y-104496785D01*
X143343333Y-104544404D01*
X143390952Y-104592023D01*
X143438571Y-104687261D01*
X143438571Y-105020595D01*
X143676666Y-104068214D02*
X143676666Y-103592023D01*
X143962380Y-104163452D02*
X142962380Y-103830119D01*
X143962380Y-103496785D01*
X143867142Y-102592023D02*
X143914761Y-102639642D01*
X143962380Y-102782500D01*
X143962380Y-102877738D01*
X143914761Y-103020595D01*
X143819523Y-103115833D01*
X143724285Y-103163452D01*
X143533809Y-103211071D01*
X143390952Y-103211071D01*
X143200476Y-103163452D01*
X143105238Y-103115833D01*
X143010000Y-103020595D01*
X142962380Y-102877738D01*
X142962380Y-102782500D01*
X143010000Y-102639642D01*
X143057619Y-102592023D01*
X143962380Y-102163452D02*
X142962380Y-102163452D01*
X143962380Y-101592023D02*
X143390952Y-102020595D01*
X142962380Y-101592023D02*
X143533809Y-102163452D01*
X143962380Y-100687261D02*
X143962380Y-101163452D01*
X142962380Y-101163452D01*
X143962380Y-100353928D02*
X142962380Y-100353928D01*
X143010000Y-99353928D02*
X142962380Y-99449166D01*
X142962380Y-99592023D01*
X143010000Y-99734880D01*
X143105238Y-99830119D01*
X143200476Y-99877738D01*
X143390952Y-99925357D01*
X143533809Y-99925357D01*
X143724285Y-99877738D01*
X143819523Y-99830119D01*
X143914761Y-99734880D01*
X143962380Y-99592023D01*
X143962380Y-99496785D01*
X143914761Y-99353928D01*
X143867142Y-99306309D01*
X143533809Y-99306309D01*
X143533809Y-99496785D01*
X143962380Y-98877738D02*
X142962380Y-98877738D01*
X143438571Y-98877738D02*
X143438571Y-98306309D01*
X143962380Y-98306309D02*
X142962380Y-98306309D01*
X142962380Y-97972976D02*
X142962380Y-97401547D01*
X143962380Y-97687261D02*
X142962380Y-97687261D01*
X163282380Y-104917738D02*
X164282380Y-104584404D01*
X163282380Y-104251071D01*
X164282380Y-103917738D02*
X163282380Y-103917738D01*
X164282380Y-103441547D02*
X163282380Y-103441547D01*
X164282380Y-102870119D01*
X163282380Y-102870119D01*
X156614761Y-104949357D02*
X156662380Y-104806500D01*
X156662380Y-104568404D01*
X156614761Y-104473166D01*
X156567142Y-104425547D01*
X156471904Y-104377928D01*
X156376666Y-104377928D01*
X156281428Y-104425547D01*
X156233809Y-104473166D01*
X156186190Y-104568404D01*
X156138571Y-104758880D01*
X156090952Y-104854119D01*
X156043333Y-104901738D01*
X155948095Y-104949357D01*
X155852857Y-104949357D01*
X155757619Y-104901738D01*
X155710000Y-104854119D01*
X155662380Y-104758880D01*
X155662380Y-104520785D01*
X155710000Y-104377928D01*
X156662380Y-103949357D02*
X155662380Y-103949357D01*
X155662380Y-103711261D01*
X155710000Y-103568404D01*
X155805238Y-103473166D01*
X155900476Y-103425547D01*
X156090952Y-103377928D01*
X156233809Y-103377928D01*
X156424285Y-103425547D01*
X156519523Y-103473166D01*
X156614761Y-103568404D01*
X156662380Y-103711261D01*
X156662380Y-103949357D01*
X156757619Y-103187452D02*
X156757619Y-102425547D01*
X156567142Y-101616023D02*
X156614761Y-101663642D01*
X156662380Y-101806500D01*
X156662380Y-101901738D01*
X156614761Y-102044595D01*
X156519523Y-102139833D01*
X156424285Y-102187452D01*
X156233809Y-102235071D01*
X156090952Y-102235071D01*
X155900476Y-102187452D01*
X155805238Y-102139833D01*
X155710000Y-102044595D01*
X155662380Y-101901738D01*
X155662380Y-101806500D01*
X155710000Y-101663642D01*
X155757619Y-101616023D01*
X156614761Y-101235071D02*
X156662380Y-101092214D01*
X156662380Y-100854119D01*
X156614761Y-100758880D01*
X156567142Y-100711261D01*
X156471904Y-100663642D01*
X156376666Y-100663642D01*
X156281428Y-100711261D01*
X156233809Y-100758880D01*
X156186190Y-100854119D01*
X156138571Y-101044595D01*
X156090952Y-101139833D01*
X156043333Y-101187452D01*
X155948095Y-101235071D01*
X155852857Y-101235071D01*
X155757619Y-101187452D01*
X155710000Y-101139833D01*
X155662380Y-101044595D01*
X155662380Y-100806500D01*
X155710000Y-100663642D01*
X161742380Y-105108214D02*
X160742380Y-105108214D01*
X160742380Y-104870119D01*
X160790000Y-104727261D01*
X160885238Y-104632023D01*
X160980476Y-104584404D01*
X161170952Y-104536785D01*
X161313809Y-104536785D01*
X161504285Y-104584404D01*
X161599523Y-104632023D01*
X161694761Y-104727261D01*
X161742380Y-104870119D01*
X161742380Y-105108214D01*
X160694761Y-103393928D02*
X161980476Y-104251071D01*
X161647142Y-102489166D02*
X161694761Y-102536785D01*
X161742380Y-102679642D01*
X161742380Y-102774880D01*
X161694761Y-102917738D01*
X161599523Y-103012976D01*
X161504285Y-103060595D01*
X161313809Y-103108214D01*
X161170952Y-103108214D01*
X160980476Y-103060595D01*
X160885238Y-103012976D01*
X160790000Y-102917738D01*
X160742380Y-102774880D01*
X160742380Y-102679642D01*
X160790000Y-102536785D01*
X160837619Y-102489166D01*
X149042380Y-104758928D02*
X148042380Y-104758928D01*
X148756666Y-104425595D01*
X148042380Y-104092261D01*
X149042380Y-104092261D01*
X149042380Y-103616071D02*
X148042380Y-103616071D01*
X148994761Y-103187500D02*
X149042380Y-103044642D01*
X149042380Y-102806547D01*
X148994761Y-102711309D01*
X148947142Y-102663690D01*
X148851904Y-102616071D01*
X148756666Y-102616071D01*
X148661428Y-102663690D01*
X148613809Y-102711309D01*
X148566190Y-102806547D01*
X148518571Y-102997023D01*
X148470952Y-103092261D01*
X148423333Y-103139880D01*
X148328095Y-103187500D01*
X148232857Y-103187500D01*
X148137619Y-103139880D01*
X148090000Y-103092261D01*
X148042380Y-102997023D01*
X148042380Y-102758928D01*
X148090000Y-102616071D01*
X148042380Y-101997023D02*
X148042380Y-101806547D01*
X148090000Y-101711309D01*
X148185238Y-101616071D01*
X148375714Y-101568452D01*
X148709047Y-101568452D01*
X148899523Y-101616071D01*
X148994761Y-101711309D01*
X149042380Y-101806547D01*
X149042380Y-101997023D01*
X148994761Y-102092261D01*
X148899523Y-102187500D01*
X148709047Y-102235119D01*
X148375714Y-102235119D01*
X148185238Y-102187500D01*
X148090000Y-102092261D01*
X148042380Y-101997023D01*
X144614523Y-83685119D02*
X144662142Y-83637500D01*
X144757380Y-83589880D01*
X144995476Y-83589880D01*
X145090714Y-83637500D01*
X145138333Y-83685119D01*
X145185952Y-83780357D01*
X145185952Y-83875595D01*
X145138333Y-84018452D01*
X144566904Y-84589880D01*
X145185952Y-84589880D01*
X145614523Y-84494642D02*
X145662142Y-84542261D01*
X145614523Y-84589880D01*
X145566904Y-84542261D01*
X145614523Y-84494642D01*
X145614523Y-84589880D01*
X146043095Y-83685119D02*
X146090714Y-83637500D01*
X146185952Y-83589880D01*
X146424047Y-83589880D01*
X146519285Y-83637500D01*
X146566904Y-83685119D01*
X146614523Y-83780357D01*
X146614523Y-83875595D01*
X146566904Y-84018452D01*
X145995476Y-84589880D01*
X146614523Y-84589880D01*
X146995476Y-83589880D02*
X146995476Y-83780357D01*
X147376428Y-83589880D02*
X147376428Y-83780357D01*
X148424047Y-83589880D02*
X148995476Y-83589880D01*
X148709761Y-84589880D02*
X148709761Y-83589880D01*
X149662142Y-84066071D02*
X149328809Y-84066071D01*
X149328809Y-84589880D02*
X149328809Y-83589880D01*
X149805000Y-83589880D01*
X150043095Y-83589880D02*
X150614523Y-83589880D01*
X150328809Y-84589880D02*
X150328809Y-83589880D01*
X151995476Y-84970833D02*
X151947857Y-84923214D01*
X151852619Y-84780357D01*
X151805000Y-84685119D01*
X151757380Y-84542261D01*
X151709761Y-84304166D01*
X151709761Y-84113690D01*
X151757380Y-83875595D01*
X151805000Y-83732738D01*
X151852619Y-83637500D01*
X151947857Y-83494642D01*
X151995476Y-83447023D01*
X152328809Y-84304166D02*
X152805000Y-84304166D01*
X152233571Y-84589880D02*
X152566904Y-83589880D01*
X152900238Y-84589880D01*
X153662142Y-84589880D02*
X153662142Y-83589880D01*
X153662142Y-84542261D02*
X153566904Y-84589880D01*
X153376428Y-84589880D01*
X153281190Y-84542261D01*
X153233571Y-84494642D01*
X153185952Y-84399404D01*
X153185952Y-84113690D01*
X153233571Y-84018452D01*
X153281190Y-83970833D01*
X153376428Y-83923214D01*
X153566904Y-83923214D01*
X153662142Y-83970833D01*
X154566904Y-84589880D02*
X154566904Y-84066071D01*
X154519285Y-83970833D01*
X154424047Y-83923214D01*
X154233571Y-83923214D01*
X154138333Y-83970833D01*
X154566904Y-84542261D02*
X154471666Y-84589880D01*
X154233571Y-84589880D01*
X154138333Y-84542261D01*
X154090714Y-84447023D01*
X154090714Y-84351785D01*
X154138333Y-84256547D01*
X154233571Y-84208928D01*
X154471666Y-84208928D01*
X154566904Y-84161309D01*
X154900238Y-83923214D02*
X155281190Y-83923214D01*
X155043095Y-84589880D02*
X155043095Y-83732738D01*
X155090714Y-83637500D01*
X155185952Y-83589880D01*
X155281190Y-83589880D01*
X155614523Y-84589880D02*
X155614523Y-83923214D01*
X155614523Y-84113690D02*
X155662142Y-84018452D01*
X155709761Y-83970833D01*
X155805000Y-83923214D01*
X155900238Y-83923214D01*
X156662142Y-83923214D02*
X156662142Y-84589880D01*
X156233571Y-83923214D02*
X156233571Y-84447023D01*
X156281190Y-84542261D01*
X156376428Y-84589880D01*
X156519285Y-84589880D01*
X156614523Y-84542261D01*
X156662142Y-84494642D01*
X157138333Y-84589880D02*
X157138333Y-83923214D01*
X157138333Y-83589880D02*
X157090714Y-83637500D01*
X157138333Y-83685119D01*
X157185952Y-83637500D01*
X157138333Y-83589880D01*
X157138333Y-83685119D01*
X157471666Y-83923214D02*
X157852619Y-83923214D01*
X157614523Y-83589880D02*
X157614523Y-84447023D01*
X157662142Y-84542261D01*
X157757380Y-84589880D01*
X157852619Y-84589880D01*
X158900238Y-83923214D02*
X159614523Y-83923214D01*
X159185952Y-83494642D02*
X158900238Y-84780357D01*
X159519285Y-84351785D02*
X158805000Y-84351785D01*
X159233571Y-84780357D02*
X159519285Y-83494642D01*
X160471666Y-84589880D02*
X159900238Y-84589880D01*
X160185952Y-84589880D02*
X160185952Y-83589880D01*
X160090714Y-83732738D01*
X159995476Y-83827976D01*
X159900238Y-83875595D01*
X161328809Y-83923214D02*
X161328809Y-84589880D01*
X161090714Y-83542261D02*
X160852619Y-84256547D01*
X161471666Y-84256547D01*
X161995476Y-84018452D02*
X161900238Y-83970833D01*
X161852619Y-83923214D01*
X161805000Y-83827976D01*
X161805000Y-83780357D01*
X161852619Y-83685119D01*
X161900238Y-83637500D01*
X161995476Y-83589880D01*
X162185952Y-83589880D01*
X162281190Y-83637500D01*
X162328809Y-83685119D01*
X162376428Y-83780357D01*
X162376428Y-83827976D01*
X162328809Y-83923214D01*
X162281190Y-83970833D01*
X162185952Y-84018452D01*
X161995476Y-84018452D01*
X161900238Y-84066071D01*
X161852619Y-84113690D01*
X161805000Y-84208928D01*
X161805000Y-84399404D01*
X161852619Y-84494642D01*
X161900238Y-84542261D01*
X161995476Y-84589880D01*
X162185952Y-84589880D01*
X162281190Y-84542261D01*
X162328809Y-84494642D01*
X162376428Y-84399404D01*
X162376428Y-84208928D01*
X162328809Y-84113690D01*
X162281190Y-84066071D01*
X162185952Y-84018452D01*
X162995476Y-83589880D02*
X163090714Y-83589880D01*
X163185952Y-83637500D01*
X163233571Y-83685119D01*
X163281190Y-83780357D01*
X163328809Y-83970833D01*
X163328809Y-84208928D01*
X163281190Y-84399404D01*
X163233571Y-84494642D01*
X163185952Y-84542261D01*
X163090714Y-84589880D01*
X162995476Y-84589880D01*
X162900238Y-84542261D01*
X162852619Y-84494642D01*
X162805000Y-84399404D01*
X162757380Y-84208928D01*
X162757380Y-83970833D01*
X162805000Y-83780357D01*
X162852619Y-83685119D01*
X162900238Y-83637500D01*
X162995476Y-83589880D01*
X163662142Y-84970833D02*
X163709761Y-84923214D01*
X163805000Y-84780357D01*
X163852619Y-84685119D01*
X163900238Y-84542261D01*
X163947857Y-84304166D01*
X163947857Y-84113690D01*
X163900238Y-83875595D01*
X163852619Y-83732738D01*
X163805000Y-83637500D01*
X163709761Y-83494642D01*
X163662142Y-83447023D01*
X165870000Y-104584404D02*
X165822380Y-104679642D01*
X165822380Y-104822500D01*
X165870000Y-104965357D01*
X165965238Y-105060595D01*
X166060476Y-105108214D01*
X166250952Y-105155833D01*
X166393809Y-105155833D01*
X166584285Y-105108214D01*
X166679523Y-105060595D01*
X166774761Y-104965357D01*
X166822380Y-104822500D01*
X166822380Y-104727261D01*
X166774761Y-104584404D01*
X166727142Y-104536785D01*
X166393809Y-104536785D01*
X166393809Y-104727261D01*
X166822380Y-104108214D02*
X165822380Y-104108214D01*
X166822380Y-103536785D01*
X165822380Y-103536785D01*
X166822380Y-103060595D02*
X165822380Y-103060595D01*
X165822380Y-102822500D01*
X165870000Y-102679642D01*
X165965238Y-102584404D01*
X166060476Y-102536785D01*
X166250952Y-102489166D01*
X166393809Y-102489166D01*
X166584285Y-102536785D01*
X166679523Y-102584404D01*
X166774761Y-102679642D01*
X166822380Y-102822500D01*
X166822380Y-103060595D01*
X151582380Y-104758928D02*
X150582380Y-104758928D01*
X151296666Y-104425595D01*
X150582380Y-104092261D01*
X151582380Y-104092261D01*
X150582380Y-103425595D02*
X150582380Y-103235119D01*
X150630000Y-103139880D01*
X150725238Y-103044642D01*
X150915714Y-102997023D01*
X151249047Y-102997023D01*
X151439523Y-103044642D01*
X151534761Y-103139880D01*
X151582380Y-103235119D01*
X151582380Y-103425595D01*
X151534761Y-103520833D01*
X151439523Y-103616071D01*
X151249047Y-103663690D01*
X150915714Y-103663690D01*
X150725238Y-103616071D01*
X150630000Y-103520833D01*
X150582380Y-103425595D01*
X151534761Y-102616071D02*
X151582380Y-102473214D01*
X151582380Y-102235119D01*
X151534761Y-102139880D01*
X151487142Y-102092261D01*
X151391904Y-102044642D01*
X151296666Y-102044642D01*
X151201428Y-102092261D01*
X151153809Y-102139880D01*
X151106190Y-102235119D01*
X151058571Y-102425595D01*
X151010952Y-102520833D01*
X150963333Y-102568452D01*
X150868095Y-102616071D01*
X150772857Y-102616071D01*
X150677619Y-102568452D01*
X150630000Y-102520833D01*
X150582380Y-102425595D01*
X150582380Y-102187500D01*
X150630000Y-102044642D01*
X151582380Y-101616071D02*
X150582380Y-101616071D01*
X146454761Y-105108214D02*
X146502380Y-104965357D01*
X146502380Y-104727261D01*
X146454761Y-104632023D01*
X146407142Y-104584404D01*
X146311904Y-104536785D01*
X146216666Y-104536785D01*
X146121428Y-104584404D01*
X146073809Y-104632023D01*
X146026190Y-104727261D01*
X145978571Y-104917738D01*
X145930952Y-105012976D01*
X145883333Y-105060595D01*
X145788095Y-105108214D01*
X145692857Y-105108214D01*
X145597619Y-105060595D01*
X145550000Y-105012976D01*
X145502380Y-104917738D01*
X145502380Y-104679642D01*
X145550000Y-104536785D01*
X146407142Y-103536785D02*
X146454761Y-103584404D01*
X146502380Y-103727261D01*
X146502380Y-103822500D01*
X146454761Y-103965357D01*
X146359523Y-104060595D01*
X146264285Y-104108214D01*
X146073809Y-104155833D01*
X145930952Y-104155833D01*
X145740476Y-104108214D01*
X145645238Y-104060595D01*
X145550000Y-103965357D01*
X145502380Y-103822500D01*
X145502380Y-103727261D01*
X145550000Y-103584404D01*
X145597619Y-103536785D01*
X146502380Y-103108214D02*
X145502380Y-103108214D01*
X146502380Y-102536785D02*
X145930952Y-102965357D01*
X145502380Y-102536785D02*
X146073809Y-103108214D01*
X154122380Y-104600119D02*
X154122380Y-105076309D01*
X153122380Y-105076309D01*
X154027142Y-103695357D02*
X154074761Y-103742976D01*
X154122380Y-103885833D01*
X154122380Y-103981071D01*
X154074761Y-104123928D01*
X153979523Y-104219166D01*
X153884285Y-104266785D01*
X153693809Y-104314404D01*
X153550952Y-104314404D01*
X153360476Y-104266785D01*
X153265238Y-104219166D01*
X153170000Y-104123928D01*
X153122380Y-103981071D01*
X153122380Y-103885833D01*
X153170000Y-103742976D01*
X153217619Y-103695357D01*
X154122380Y-103266785D02*
X153122380Y-103266785D01*
X153122380Y-103028690D01*
X153170000Y-102885833D01*
X153265238Y-102790595D01*
X153360476Y-102742976D01*
X153550952Y-102695357D01*
X153693809Y-102695357D01*
X153884285Y-102742976D01*
X153979523Y-102790595D01*
X154074761Y-102885833D01*
X154122380Y-103028690D01*
X154122380Y-103266785D01*
X154217619Y-102504880D02*
X154217619Y-101742976D01*
X154027142Y-100933452D02*
X154074761Y-100981071D01*
X154122380Y-101123928D01*
X154122380Y-101219166D01*
X154074761Y-101362023D01*
X153979523Y-101457261D01*
X153884285Y-101504880D01*
X153693809Y-101552500D01*
X153550952Y-101552500D01*
X153360476Y-101504880D01*
X153265238Y-101457261D01*
X153170000Y-101362023D01*
X153122380Y-101219166D01*
X153122380Y-101123928D01*
X153170000Y-100981071D01*
X153217619Y-100933452D01*
X154074761Y-100552500D02*
X154122380Y-100409642D01*
X154122380Y-100171547D01*
X154074761Y-100076309D01*
X154027142Y-100028690D01*
X153931904Y-99981071D01*
X153836666Y-99981071D01*
X153741428Y-100028690D01*
X153693809Y-100076309D01*
X153646190Y-100171547D01*
X153598571Y-100362023D01*
X153550952Y-100457261D01*
X153503333Y-100504880D01*
X153408095Y-100552500D01*
X153312857Y-100552500D01*
X153217619Y-100504880D01*
X153170000Y-100457261D01*
X153122380Y-100362023D01*
X153122380Y-100123928D01*
X153170000Y-99981071D01*
X159202380Y-104512880D02*
X158726190Y-104846214D01*
X159202380Y-105084309D02*
X158202380Y-105084309D01*
X158202380Y-104703357D01*
X158250000Y-104608119D01*
X158297619Y-104560500D01*
X158392857Y-104512880D01*
X158535714Y-104512880D01*
X158630952Y-104560500D01*
X158678571Y-104608119D01*
X158726190Y-104703357D01*
X158726190Y-105084309D01*
X158678571Y-104084309D02*
X158678571Y-103750976D01*
X159202380Y-103608119D02*
X159202380Y-104084309D01*
X158202380Y-104084309D01*
X158202380Y-103608119D01*
X159154761Y-103227166D02*
X159202380Y-103084309D01*
X159202380Y-102846214D01*
X159154761Y-102750976D01*
X159107142Y-102703357D01*
X159011904Y-102655738D01*
X158916666Y-102655738D01*
X158821428Y-102703357D01*
X158773809Y-102750976D01*
X158726190Y-102846214D01*
X158678571Y-103036690D01*
X158630952Y-103131928D01*
X158583333Y-103179547D01*
X158488095Y-103227166D01*
X158392857Y-103227166D01*
X158297619Y-103179547D01*
X158250000Y-103131928D01*
X158202380Y-103036690D01*
X158202380Y-102798595D01*
X158250000Y-102655738D01*
X158678571Y-102227166D02*
X158678571Y-101893833D01*
X159202380Y-101750976D02*
X159202380Y-102227166D01*
X158202380Y-102227166D01*
X158202380Y-101750976D01*
X158202380Y-101465261D02*
X158202380Y-100893833D01*
X159202380Y-101179547D02*
X158202380Y-101179547D01*
%TO.C,D1*%
X90701904Y-69182380D02*
X90701904Y-68182380D01*
X90940000Y-68182380D01*
X91082857Y-68230000D01*
X91178095Y-68325238D01*
X91225714Y-68420476D01*
X91273333Y-68610952D01*
X91273333Y-68753809D01*
X91225714Y-68944285D01*
X91178095Y-69039523D01*
X91082857Y-69134761D01*
X90940000Y-69182380D01*
X90701904Y-69182380D01*
X92225714Y-69182380D02*
X91654285Y-69182380D01*
X91940000Y-69182380D02*
X91940000Y-68182380D01*
X91844761Y-68325238D01*
X91749523Y-68420476D01*
X91654285Y-68468095D01*
%TO.C,H3*%
X205740095Y-31050380D02*
X205740095Y-30050380D01*
X205740095Y-30526571D02*
X206311523Y-30526571D01*
X206311523Y-31050380D02*
X206311523Y-30050380D01*
X206692476Y-30050380D02*
X207311523Y-30050380D01*
X206978190Y-30431333D01*
X207121047Y-30431333D01*
X207216285Y-30478952D01*
X207263904Y-30526571D01*
X207311523Y-30621809D01*
X207311523Y-30859904D01*
X207263904Y-30955142D01*
X207216285Y-31002761D01*
X207121047Y-31050380D01*
X206835333Y-31050380D01*
X206740095Y-31002761D01*
X206692476Y-30955142D01*
%TO.C,SW1*%
X84273761Y-103949333D02*
X84321380Y-103806476D01*
X84321380Y-103568380D01*
X84273761Y-103473142D01*
X84226142Y-103425523D01*
X84130904Y-103377904D01*
X84035666Y-103377904D01*
X83940428Y-103425523D01*
X83892809Y-103473142D01*
X83845190Y-103568380D01*
X83797571Y-103758857D01*
X83749952Y-103854095D01*
X83702333Y-103901714D01*
X83607095Y-103949333D01*
X83511857Y-103949333D01*
X83416619Y-103901714D01*
X83369000Y-103854095D01*
X83321380Y-103758857D01*
X83321380Y-103520761D01*
X83369000Y-103377904D01*
X83321380Y-103044571D02*
X84321380Y-102806476D01*
X83607095Y-102616000D01*
X84321380Y-102425523D01*
X83321380Y-102187428D01*
X84321380Y-101282666D02*
X84321380Y-101854095D01*
X84321380Y-101568380D02*
X83321380Y-101568380D01*
X83464238Y-101663619D01*
X83559476Y-101758857D01*
X83607095Y-101854095D01*
%TO.C,DS1*%
X111172380Y-35504285D02*
X110172380Y-35504285D01*
X110172380Y-35266190D01*
X110220000Y-35123333D01*
X110315238Y-35028095D01*
X110410476Y-34980476D01*
X110600952Y-34932857D01*
X110743809Y-34932857D01*
X110934285Y-34980476D01*
X111029523Y-35028095D01*
X111124761Y-35123333D01*
X111172380Y-35266190D01*
X111172380Y-35504285D01*
X111124761Y-34551904D02*
X111172380Y-34409047D01*
X111172380Y-34170952D01*
X111124761Y-34075714D01*
X111077142Y-34028095D01*
X110981904Y-33980476D01*
X110886666Y-33980476D01*
X110791428Y-34028095D01*
X110743809Y-34075714D01*
X110696190Y-34170952D01*
X110648571Y-34361428D01*
X110600952Y-34456666D01*
X110553333Y-34504285D01*
X110458095Y-34551904D01*
X110362857Y-34551904D01*
X110267619Y-34504285D01*
X110220000Y-34456666D01*
X110172380Y-34361428D01*
X110172380Y-34123333D01*
X110220000Y-33980476D01*
X111172380Y-33028095D02*
X111172380Y-33599523D01*
X111172380Y-33313809D02*
X110172380Y-33313809D01*
X110315238Y-33409047D01*
X110410476Y-33504285D01*
X110458095Y-33599523D01*
X99782380Y-39290476D02*
X100782380Y-38957142D01*
X99782380Y-38623809D01*
X100734761Y-37861904D02*
X100782380Y-37957142D01*
X100782380Y-38147619D01*
X100734761Y-38242857D01*
X100687142Y-38290476D01*
X100591904Y-38338095D01*
X100306190Y-38338095D01*
X100210952Y-38290476D01*
X100163333Y-38242857D01*
X100115714Y-38147619D01*
X100115714Y-37957142D01*
X100163333Y-37861904D01*
X100734761Y-37004761D02*
X100782380Y-37100000D01*
X100782380Y-37290476D01*
X100734761Y-37385714D01*
X100687142Y-37433333D01*
X100591904Y-37480952D01*
X100306190Y-37480952D01*
X100210952Y-37433333D01*
X100163333Y-37385714D01*
X100115714Y-37290476D01*
X100115714Y-37100000D01*
X100163333Y-37004761D01*
X102370000Y-38861904D02*
X102322380Y-38957142D01*
X102322380Y-39100000D01*
X102370000Y-39242857D01*
X102465238Y-39338095D01*
X102560476Y-39385714D01*
X102750952Y-39433333D01*
X102893809Y-39433333D01*
X103084285Y-39385714D01*
X103179523Y-39338095D01*
X103274761Y-39242857D01*
X103322380Y-39100000D01*
X103322380Y-39004761D01*
X103274761Y-38861904D01*
X103227142Y-38814285D01*
X102893809Y-38814285D01*
X102893809Y-39004761D01*
X103322380Y-38385714D02*
X102322380Y-38385714D01*
X103322380Y-37814285D01*
X102322380Y-37814285D01*
X103322380Y-37338095D02*
X102322380Y-37338095D01*
X102322380Y-37100000D01*
X102370000Y-36957142D01*
X102465238Y-36861904D01*
X102560476Y-36814285D01*
X102750952Y-36766666D01*
X102893809Y-36766666D01*
X103084285Y-36814285D01*
X103179523Y-36861904D01*
X103274761Y-36957142D01*
X103322380Y-37100000D01*
X103322380Y-37338095D01*
X105814761Y-39314285D02*
X105862380Y-39171428D01*
X105862380Y-38933333D01*
X105814761Y-38838095D01*
X105767142Y-38790476D01*
X105671904Y-38742857D01*
X105576666Y-38742857D01*
X105481428Y-38790476D01*
X105433809Y-38838095D01*
X105386190Y-38933333D01*
X105338571Y-39123809D01*
X105290952Y-39219047D01*
X105243333Y-39266666D01*
X105148095Y-39314285D01*
X105052857Y-39314285D01*
X104957619Y-39266666D01*
X104910000Y-39219047D01*
X104862380Y-39123809D01*
X104862380Y-38885714D01*
X104910000Y-38742857D01*
X105862380Y-38314285D02*
X104862380Y-38314285D01*
X104862380Y-38076190D01*
X104910000Y-37933333D01*
X105005238Y-37838095D01*
X105100476Y-37790476D01*
X105290952Y-37742857D01*
X105433809Y-37742857D01*
X105624285Y-37790476D01*
X105719523Y-37838095D01*
X105814761Y-37933333D01*
X105862380Y-38076190D01*
X105862380Y-38314285D01*
X105576666Y-37361904D02*
X105576666Y-36885714D01*
X105862380Y-37457142D02*
X104862380Y-37123809D01*
X105862380Y-36790476D01*
X92298571Y-58110380D02*
X91965238Y-57634190D01*
X91727142Y-58110380D02*
X91727142Y-57110380D01*
X92108095Y-57110380D01*
X92203333Y-57158000D01*
X92250952Y-57205619D01*
X92298571Y-57300857D01*
X92298571Y-57443714D01*
X92250952Y-57538952D01*
X92203333Y-57586571D01*
X92108095Y-57634190D01*
X91727142Y-57634190D01*
X92727142Y-58110380D02*
X92727142Y-57110380D01*
X93108095Y-57110380D01*
X93203333Y-57158000D01*
X93250952Y-57205619D01*
X93298571Y-57300857D01*
X93298571Y-57443714D01*
X93250952Y-57538952D01*
X93203333Y-57586571D01*
X93108095Y-57634190D01*
X92727142Y-57634190D01*
X93727142Y-58110380D02*
X93727142Y-57110380D01*
X94060476Y-57824666D01*
X94393809Y-57110380D01*
X94393809Y-58110380D01*
X95631904Y-58110380D02*
X95631904Y-57110380D01*
X95870000Y-57110380D01*
X96012857Y-57158000D01*
X96108095Y-57253238D01*
X96155714Y-57348476D01*
X96203333Y-57538952D01*
X96203333Y-57681809D01*
X96155714Y-57872285D01*
X96108095Y-57967523D01*
X96012857Y-58062761D01*
X95870000Y-58110380D01*
X95631904Y-58110380D01*
X96631904Y-58110380D02*
X96631904Y-57443714D01*
X96631904Y-57110380D02*
X96584285Y-57158000D01*
X96631904Y-57205619D01*
X96679523Y-57158000D01*
X96631904Y-57110380D01*
X96631904Y-57205619D01*
X97060476Y-58062761D02*
X97155714Y-58110380D01*
X97346190Y-58110380D01*
X97441428Y-58062761D01*
X97489047Y-57967523D01*
X97489047Y-57919904D01*
X97441428Y-57824666D01*
X97346190Y-57777047D01*
X97203333Y-57777047D01*
X97108095Y-57729428D01*
X97060476Y-57634190D01*
X97060476Y-57586571D01*
X97108095Y-57491333D01*
X97203333Y-57443714D01*
X97346190Y-57443714D01*
X97441428Y-57491333D01*
X97917619Y-57443714D02*
X97917619Y-58443714D01*
X97917619Y-57491333D02*
X98012857Y-57443714D01*
X98203333Y-57443714D01*
X98298571Y-57491333D01*
X98346190Y-57538952D01*
X98393809Y-57634190D01*
X98393809Y-57919904D01*
X98346190Y-58015142D01*
X98298571Y-58062761D01*
X98203333Y-58110380D01*
X98012857Y-58110380D01*
X97917619Y-58062761D01*
X98965238Y-58110380D02*
X98870000Y-58062761D01*
X98822380Y-57967523D01*
X98822380Y-57110380D01*
X99774761Y-58110380D02*
X99774761Y-57586571D01*
X99727142Y-57491333D01*
X99631904Y-57443714D01*
X99441428Y-57443714D01*
X99346190Y-57491333D01*
X99774761Y-58062761D02*
X99679523Y-58110380D01*
X99441428Y-58110380D01*
X99346190Y-58062761D01*
X99298571Y-57967523D01*
X99298571Y-57872285D01*
X99346190Y-57777047D01*
X99441428Y-57729428D01*
X99679523Y-57729428D01*
X99774761Y-57681809D01*
X100155714Y-57443714D02*
X100393809Y-58110380D01*
X100631904Y-57443714D02*
X100393809Y-58110380D01*
X100298571Y-58348476D01*
X100250952Y-58396095D01*
X100155714Y-58443714D01*
X102060476Y-58491333D02*
X102012857Y-58443714D01*
X101917619Y-58300857D01*
X101869999Y-58205619D01*
X101822380Y-58062761D01*
X101774761Y-57824666D01*
X101774761Y-57634190D01*
X101822380Y-57396095D01*
X101869999Y-57253238D01*
X101917619Y-57158000D01*
X102012857Y-57015142D01*
X102060476Y-56967523D01*
X102393809Y-57824666D02*
X102869999Y-57824666D01*
X102298571Y-58110380D02*
X102631904Y-57110380D01*
X102965238Y-58110380D01*
X103727142Y-58110380D02*
X103727142Y-57110380D01*
X103727142Y-58062761D02*
X103631904Y-58110380D01*
X103441428Y-58110380D01*
X103346190Y-58062761D01*
X103298571Y-58015142D01*
X103250952Y-57919904D01*
X103250952Y-57634190D01*
X103298571Y-57538952D01*
X103346190Y-57491333D01*
X103441428Y-57443714D01*
X103631904Y-57443714D01*
X103727142Y-57491333D01*
X104631904Y-58110380D02*
X104631904Y-57586571D01*
X104584285Y-57491333D01*
X104489047Y-57443714D01*
X104298571Y-57443714D01*
X104203333Y-57491333D01*
X104631904Y-58062761D02*
X104536666Y-58110380D01*
X104298571Y-58110380D01*
X104203333Y-58062761D01*
X104155714Y-57967523D01*
X104155714Y-57872285D01*
X104203333Y-57777047D01*
X104298571Y-57729428D01*
X104536666Y-57729428D01*
X104631904Y-57681809D01*
X104965238Y-57443714D02*
X105346190Y-57443714D01*
X105108095Y-58110380D02*
X105108095Y-57253238D01*
X105155714Y-57158000D01*
X105250952Y-57110380D01*
X105346190Y-57110380D01*
X105679523Y-58110380D02*
X105679523Y-57443714D01*
X105679523Y-57634190D02*
X105727142Y-57538952D01*
X105774761Y-57491333D01*
X105869999Y-57443714D01*
X105965238Y-57443714D01*
X106727142Y-57443714D02*
X106727142Y-58110380D01*
X106298571Y-57443714D02*
X106298571Y-57967523D01*
X106346190Y-58062761D01*
X106441428Y-58110380D01*
X106584285Y-58110380D01*
X106679523Y-58062761D01*
X106727142Y-58015142D01*
X107203333Y-58110380D02*
X107203333Y-57443714D01*
X107203333Y-57110380D02*
X107155714Y-57158000D01*
X107203333Y-57205619D01*
X107250952Y-57158000D01*
X107203333Y-57110380D01*
X107203333Y-57205619D01*
X107536666Y-57443714D02*
X107917619Y-57443714D01*
X107679523Y-57110380D02*
X107679523Y-57967523D01*
X107727142Y-58062761D01*
X107822380Y-58110380D01*
X107917619Y-58110380D01*
X108965238Y-57443714D02*
X109679523Y-57443714D01*
X109250952Y-57015142D02*
X108965238Y-58300857D01*
X109584285Y-57872285D02*
X108869999Y-57872285D01*
X109298571Y-58300857D02*
X109584285Y-57015142D01*
X110536666Y-58110380D02*
X109965238Y-58110380D01*
X110250952Y-58110380D02*
X110250952Y-57110380D01*
X110155714Y-57253238D01*
X110060476Y-57348476D01*
X109965238Y-57396095D01*
X111155714Y-57110380D02*
X111250952Y-57110380D01*
X111346190Y-57158000D01*
X111393809Y-57205619D01*
X111441428Y-57300857D01*
X111489047Y-57491333D01*
X111489047Y-57729428D01*
X111441428Y-57919904D01*
X111393809Y-58015142D01*
X111346190Y-58062761D01*
X111250952Y-58110380D01*
X111155714Y-58110380D01*
X111060476Y-58062761D01*
X111012857Y-58015142D01*
X110965238Y-57919904D01*
X110917619Y-57729428D01*
X110917619Y-57491333D01*
X110965238Y-57300857D01*
X111012857Y-57205619D01*
X111060476Y-57158000D01*
X111155714Y-57110380D01*
X112108095Y-57110380D02*
X112203333Y-57110380D01*
X112298571Y-57158000D01*
X112346190Y-57205619D01*
X112393809Y-57300857D01*
X112441428Y-57491333D01*
X112441428Y-57729428D01*
X112393809Y-57919904D01*
X112346190Y-58015142D01*
X112298571Y-58062761D01*
X112203333Y-58110380D01*
X112108095Y-58110380D01*
X112012857Y-58062761D01*
X111965238Y-58015142D01*
X111917619Y-57919904D01*
X111869999Y-57729428D01*
X111869999Y-57491333D01*
X111917619Y-57300857D01*
X111965238Y-57205619D01*
X112012857Y-57158000D01*
X112108095Y-57110380D01*
X112822380Y-57205619D02*
X112869999Y-57158000D01*
X112965238Y-57110380D01*
X113203333Y-57110380D01*
X113298571Y-57158000D01*
X113346190Y-57205619D01*
X113393809Y-57300857D01*
X113393809Y-57396095D01*
X113346190Y-57538952D01*
X112774761Y-58110380D01*
X113393809Y-58110380D01*
X113727142Y-58491333D02*
X113774761Y-58443714D01*
X113869999Y-58300857D01*
X113917619Y-58205619D01*
X113965238Y-58062761D01*
X114012857Y-57824666D01*
X114012857Y-57634190D01*
X113965238Y-57396095D01*
X113917619Y-57253238D01*
X113869999Y-57158000D01*
X113774761Y-57015142D01*
X113727142Y-56967523D01*
X97242380Y-39576190D02*
X98242380Y-39242857D01*
X97242380Y-38909523D01*
X98242380Y-38576190D02*
X97575714Y-38576190D01*
X97242380Y-38576190D02*
X97290000Y-38623809D01*
X97337619Y-38576190D01*
X97290000Y-38528571D01*
X97242380Y-38576190D01*
X97337619Y-38576190D01*
X97337619Y-38147619D02*
X97290000Y-38100000D01*
X97242380Y-38004761D01*
X97242380Y-37766666D01*
X97290000Y-37671428D01*
X97337619Y-37623809D01*
X97432857Y-37576190D01*
X97528095Y-37576190D01*
X97670952Y-37623809D01*
X98242380Y-38195238D01*
X98242380Y-37576190D01*
X98194761Y-36719047D02*
X98242380Y-36814285D01*
X98242380Y-37004761D01*
X98194761Y-37100000D01*
X98147142Y-37147619D01*
X98051904Y-37195238D01*
X97766190Y-37195238D01*
X97670952Y-37147619D01*
X97623333Y-37100000D01*
X97575714Y-37004761D01*
X97575714Y-36814285D01*
X97623333Y-36719047D01*
X108354761Y-39290476D02*
X108402380Y-39147619D01*
X108402380Y-38909523D01*
X108354761Y-38814285D01*
X108307142Y-38766666D01*
X108211904Y-38719047D01*
X108116666Y-38719047D01*
X108021428Y-38766666D01*
X107973809Y-38814285D01*
X107926190Y-38909523D01*
X107878571Y-39100000D01*
X107830952Y-39195238D01*
X107783333Y-39242857D01*
X107688095Y-39290476D01*
X107592857Y-39290476D01*
X107497619Y-39242857D01*
X107450000Y-39195238D01*
X107402380Y-39100000D01*
X107402380Y-38861904D01*
X107450000Y-38719047D01*
X108307142Y-37719047D02*
X108354761Y-37766666D01*
X108402380Y-37909523D01*
X108402380Y-38004761D01*
X108354761Y-38147619D01*
X108259523Y-38242857D01*
X108164285Y-38290476D01*
X107973809Y-38338095D01*
X107830952Y-38338095D01*
X107640476Y-38290476D01*
X107545238Y-38242857D01*
X107450000Y-38147619D01*
X107402380Y-38004761D01*
X107402380Y-37909523D01*
X107450000Y-37766666D01*
X107497619Y-37719047D01*
X108402380Y-36814285D02*
X108402380Y-37290476D01*
X107402380Y-37290476D01*
%TO.C,SW2*%
X90106666Y-80414761D02*
X90249523Y-80462380D01*
X90487619Y-80462380D01*
X90582857Y-80414761D01*
X90630476Y-80367142D01*
X90678095Y-80271904D01*
X90678095Y-80176666D01*
X90630476Y-80081428D01*
X90582857Y-80033809D01*
X90487619Y-79986190D01*
X90297142Y-79938571D01*
X90201904Y-79890952D01*
X90154285Y-79843333D01*
X90106666Y-79748095D01*
X90106666Y-79652857D01*
X90154285Y-79557619D01*
X90201904Y-79510000D01*
X90297142Y-79462380D01*
X90535238Y-79462380D01*
X90678095Y-79510000D01*
X91011428Y-79462380D02*
X91249523Y-80462380D01*
X91440000Y-79748095D01*
X91630476Y-80462380D01*
X91868571Y-79462380D01*
X92201904Y-79557619D02*
X92249523Y-79510000D01*
X92344761Y-79462380D01*
X92582857Y-79462380D01*
X92678095Y-79510000D01*
X92725714Y-79557619D01*
X92773333Y-79652857D01*
X92773333Y-79748095D01*
X92725714Y-79890952D01*
X92154285Y-80462380D01*
X92773333Y-80462380D01*
%TO.C,SW5*%
X184086666Y-71084761D02*
X184229523Y-71132380D01*
X184467619Y-71132380D01*
X184562857Y-71084761D01*
X184610476Y-71037142D01*
X184658095Y-70941904D01*
X184658095Y-70846666D01*
X184610476Y-70751428D01*
X184562857Y-70703809D01*
X184467619Y-70656190D01*
X184277142Y-70608571D01*
X184181904Y-70560952D01*
X184134285Y-70513333D01*
X184086666Y-70418095D01*
X184086666Y-70322857D01*
X184134285Y-70227619D01*
X184181904Y-70180000D01*
X184277142Y-70132380D01*
X184515238Y-70132380D01*
X184658095Y-70180000D01*
X184991428Y-70132380D02*
X185229523Y-71132380D01*
X185420000Y-70418095D01*
X185610476Y-71132380D01*
X185848571Y-70132380D01*
X186705714Y-70132380D02*
X186229523Y-70132380D01*
X186181904Y-70608571D01*
X186229523Y-70560952D01*
X186324761Y-70513333D01*
X186562857Y-70513333D01*
X186658095Y-70560952D01*
X186705714Y-70608571D01*
X186753333Y-70703809D01*
X186753333Y-70941904D01*
X186705714Y-71037142D01*
X186658095Y-71084761D01*
X186562857Y-71132380D01*
X186324761Y-71132380D01*
X186229523Y-71084761D01*
X186181904Y-71037142D01*
%TO.C,SW6*%
X184086666Y-82514761D02*
X184229523Y-82562380D01*
X184467619Y-82562380D01*
X184562857Y-82514761D01*
X184610476Y-82467142D01*
X184658095Y-82371904D01*
X184658095Y-82276666D01*
X184610476Y-82181428D01*
X184562857Y-82133809D01*
X184467619Y-82086190D01*
X184277142Y-82038571D01*
X184181904Y-81990952D01*
X184134285Y-81943333D01*
X184086666Y-81848095D01*
X184086666Y-81752857D01*
X184134285Y-81657619D01*
X184181904Y-81610000D01*
X184277142Y-81562380D01*
X184515238Y-81562380D01*
X184658095Y-81610000D01*
X184991428Y-81562380D02*
X185229523Y-82562380D01*
X185420000Y-81848095D01*
X185610476Y-82562380D01*
X185848571Y-81562380D01*
X186658095Y-81562380D02*
X186467619Y-81562380D01*
X186372380Y-81610000D01*
X186324761Y-81657619D01*
X186229523Y-81800476D01*
X186181904Y-81990952D01*
X186181904Y-82371904D01*
X186229523Y-82467142D01*
X186277142Y-82514761D01*
X186372380Y-82562380D01*
X186562857Y-82562380D01*
X186658095Y-82514761D01*
X186705714Y-82467142D01*
X186753333Y-82371904D01*
X186753333Y-82133809D01*
X186705714Y-82038571D01*
X186658095Y-81990952D01*
X186562857Y-81943333D01*
X186372380Y-81943333D01*
X186277142Y-81990952D01*
X186229523Y-82038571D01*
X186181904Y-82133809D01*
%TO.C,H2*%
X78486095Y-107504380D02*
X78486095Y-106504380D01*
X78486095Y-106980571D02*
X79057523Y-106980571D01*
X79057523Y-107504380D02*
X79057523Y-106504380D01*
X79486095Y-106599619D02*
X79533714Y-106552000D01*
X79628952Y-106504380D01*
X79867047Y-106504380D01*
X79962285Y-106552000D01*
X80009904Y-106599619D01*
X80057523Y-106694857D01*
X80057523Y-106790095D01*
X80009904Y-106932952D01*
X79438476Y-107504380D01*
X80057523Y-107504380D01*
%TO.C,H1*%
X205740095Y-107504380D02*
X205740095Y-106504380D01*
X205740095Y-106980571D02*
X206311523Y-106980571D01*
X206311523Y-107504380D02*
X206311523Y-106504380D01*
X207311523Y-107504380D02*
X206740095Y-107504380D01*
X207025809Y-107504380D02*
X207025809Y-106504380D01*
X206930571Y-106647238D01*
X206835333Y-106742476D01*
X206740095Y-106790095D01*
%TO.C,SW4*%
X137096666Y-34254761D02*
X137239523Y-34302380D01*
X137477619Y-34302380D01*
X137572857Y-34254761D01*
X137620476Y-34207142D01*
X137668095Y-34111904D01*
X137668095Y-34016666D01*
X137620476Y-33921428D01*
X137572857Y-33873809D01*
X137477619Y-33826190D01*
X137287142Y-33778571D01*
X137191904Y-33730952D01*
X137144285Y-33683333D01*
X137096666Y-33588095D01*
X137096666Y-33492857D01*
X137144285Y-33397619D01*
X137191904Y-33350000D01*
X137287142Y-33302380D01*
X137525238Y-33302380D01*
X137668095Y-33350000D01*
X138001428Y-33302380D02*
X138239523Y-34302380D01*
X138430000Y-33588095D01*
X138620476Y-34302380D01*
X138858571Y-33302380D01*
X139668095Y-33635714D02*
X139668095Y-34302380D01*
X139430000Y-33254761D02*
X139191904Y-33969047D01*
X139810952Y-33969047D01*
%TO.C,SW3*%
X170116666Y-34254761D02*
X170259523Y-34302380D01*
X170497619Y-34302380D01*
X170592857Y-34254761D01*
X170640476Y-34207142D01*
X170688095Y-34111904D01*
X170688095Y-34016666D01*
X170640476Y-33921428D01*
X170592857Y-33873809D01*
X170497619Y-33826190D01*
X170307142Y-33778571D01*
X170211904Y-33730952D01*
X170164285Y-33683333D01*
X170116666Y-33588095D01*
X170116666Y-33492857D01*
X170164285Y-33397619D01*
X170211904Y-33350000D01*
X170307142Y-33302380D01*
X170545238Y-33302380D01*
X170688095Y-33350000D01*
X171021428Y-33302380D02*
X171259523Y-34302380D01*
X171450000Y-33588095D01*
X171640476Y-34302380D01*
X171878571Y-33302380D01*
X172164285Y-33302380D02*
X172783333Y-33302380D01*
X172450000Y-33683333D01*
X172592857Y-33683333D01*
X172688095Y-33730952D01*
X172735714Y-33778571D01*
X172783333Y-33873809D01*
X172783333Y-34111904D01*
X172735714Y-34207142D01*
X172688095Y-34254761D01*
X172592857Y-34302380D01*
X172307142Y-34302380D01*
X172211904Y-34254761D01*
X172164285Y-34207142D01*
%TO.C,H4*%
X78740095Y-31050380D02*
X78740095Y-30050380D01*
X78740095Y-30526571D02*
X79311523Y-30526571D01*
X79311523Y-31050380D02*
X79311523Y-30050380D01*
X80216285Y-30383714D02*
X80216285Y-31050380D01*
X79978190Y-30002761D02*
X79740095Y-30717047D01*
X80359142Y-30717047D01*
D12*
%TO.C,SW7*%
X188920000Y-98540000D02*
X188920000Y-97040000D01*
X183170000Y-101040000D02*
X187670000Y-101040000D01*
X181920000Y-97040000D02*
X181920000Y-98540000D01*
X187670000Y-94540000D02*
X183170000Y-94540000D01*
%TO.C,SW8*%
X185540000Y-65660000D02*
X200040000Y-65660000D01*
X185540000Y-56260000D02*
X200040000Y-56260000D01*
X185540000Y-56260000D02*
X185540000Y-65660000D01*
X200040000Y-56260000D02*
X200040000Y-65660000D01*
X194090000Y-66560000D02*
X191990000Y-66560000D01*
X191990000Y-66560000D02*
X191990000Y-64760000D01*
X191990000Y-64760000D02*
X194090000Y-64760000D01*
X194090000Y-64760000D02*
X194090000Y-66560000D01*
X194090000Y-55360000D02*
X191990000Y-55360000D01*
X191990000Y-55360000D02*
X191990000Y-57160000D01*
X191990000Y-57160000D02*
X194090000Y-57160000D01*
X194090000Y-57160000D02*
X194090000Y-55360000D01*
X195580000Y-60960000D02*
G75*
G03*
X195580000Y-60960000I-2540000J0D01*
G01*
%TO.C,DS2*%
X142180000Y-108962500D02*
X142180000Y-107632500D01*
X143510000Y-108962500D02*
X142180000Y-108962500D01*
X144780000Y-108962500D02*
X144780000Y-106302500D01*
X144780000Y-108962500D02*
X167700000Y-108962500D01*
X144780000Y-106302500D02*
X167700000Y-106302500D01*
X167700000Y-108962500D02*
X167700000Y-106302500D01*
%TO.C,D1*%
X94000000Y-66315000D02*
X94000000Y-63225000D01*
X94000000Y-63225170D02*
G75*
G03*
X88450000Y-64770462I-2560000J-1544830D01*
G01*
X88450000Y-64769538D02*
G75*
G03*
X94000000Y-66314830I2990000J-462D01*
G01*
X93940000Y-64770000D02*
G75*
G03*
X93940000Y-64770000I-2500000J0D01*
G01*
D13*
%TO.C,SW1*%
X84758000Y-106426000D02*
X98093000Y-106426000D01*
X98093000Y-106426000D02*
X98093000Y-99314000D01*
X98093000Y-99314000D02*
X84758000Y-99314000D01*
X84758000Y-99314000D02*
X84758000Y-106426000D01*
D12*
%TO.C,DS1*%
X109280000Y-34290000D02*
X109280000Y-35620000D01*
X106680000Y-35620000D02*
X96460000Y-35620000D01*
X109280000Y-35620000D02*
X107950000Y-35620000D01*
X96460000Y-32960000D02*
X96460000Y-35620000D01*
X106680000Y-32960000D02*
X96460000Y-32960000D01*
X106680000Y-32960000D02*
X106680000Y-35620000D01*
%TO.C,SW2*%
X91440000Y-82550000D02*
G75*
G03*
X91440000Y-82550000I0J0D01*
G01*
X104533700Y-82550000D02*
G75*
G03*
X104533700Y-82550000I-13093700J0D01*
G01*
X100965000Y-82550000D02*
G75*
G03*
X100965000Y-82550000I-9525000J0D01*
G01*
%TO.C,SW5*%
X181920000Y-74180000D02*
X181920000Y-75680000D01*
X183170000Y-78180000D02*
X187670000Y-78180000D01*
X187670000Y-71680000D02*
X183170000Y-71680000D01*
X188920000Y-75680000D02*
X188920000Y-74180000D01*
%TO.C,SW6*%
X187670000Y-83110000D02*
X183170000Y-83110000D01*
X183170000Y-89610000D02*
X187670000Y-89610000D01*
X181920000Y-85610000D02*
X181920000Y-87110000D01*
X188920000Y-87110000D02*
X188920000Y-85610000D01*
%TO.C,SW4*%
X140680000Y-34850000D02*
X136180000Y-34850000D01*
X136180000Y-41350000D02*
X140680000Y-41350000D01*
X134930000Y-37350000D02*
X134930000Y-38850000D01*
X141930000Y-38850000D02*
X141930000Y-37350000D01*
%TO.C,SW3*%
X173700000Y-34850000D02*
X169200000Y-34850000D01*
X169200000Y-41350000D02*
X173700000Y-41350000D01*
X167950000Y-37350000D02*
X167950000Y-38850000D01*
X174950000Y-38850000D02*
X174950000Y-37350000D01*
%TO.C,J3*%
X105614724Y-112268000D02*
G75*
G03*
X105614724Y-112268000I-381000J0D01*
G01*
%TO.C,J2*%
X127947700Y-112216801D02*
G75*
G03*
X127947700Y-112216801I-381000J0D01*
G01*
%TO.C,J1*%
X193225700Y-112216801D02*
G75*
G03*
X193225700Y-112216801I-381000J0D01*
G01*
%TD*%
M02*
